<?xml version="1.0" standalone="no"?><!DOCTYPE svg PUBLIC "-//W3C//DTD SVG 1.1//EN" "http://www.w3.org/Graphics/SVG/1.1/DTD/svg11.dtd"><svg t="1535461102398" class="icon" style="" viewBox="0 0 1024 1024" version="1.1" xmlns="http://www.w3.org/2000/svg" p-id="9298" xmlns:xlink="http://www.w3.org/1999/xlink" width="64" height="64"><defs><style type="text/css"></style></defs><path d="M512.29831067 90.48701861C404.60815761 90.78532928 296.61969387 131.9522022 214.28594803 214.28594803S90.78532928 404.60815761 90.78532928 512.59662135C90.48701861 620.28677441 131.65389153 728.27523815 213.68932669 810.31067331c36.09559147 36.09559147 77.26246439 64.13679476 121.11413336 84.72023122 45.34322234 20.88174713 93.66955142 33.41079541 142.89081252 37.28883417 12.23073761 0.89493202 22.67161117-7.75607751 23.56654319-19.98681511s-7.75607751-22.67161117-19.98681511-23.5665432c-43.5533583-3.57972808-87.10671661-14.91553367-127.97527885-33.70910608-39.37700888-17.8986404-76.06922169-43.25504763-108.58508509-75.77091102-73.68273631-73.68273631-110.6732598-170.33539446-110.07663845-266.98805262C134.63699826 415.64565252 171.62752175 318.99299437 245.31025806 245.31025806c73.98104698-73.98104698 170.63370514-110.97157047 267.28636329-110.97157047 96.35434748-0.29831067 193.00700563 36.69221282 266.68974194 110.37494912s110.37494913 170.03708379 110.37494912 266.68974194c0 96.65265815-37.28883416 193.60362698-110.97157047 267.28636329-22.67161117 22.67161117-47.43139706 42.06180494-73.68273631 57.57395995-27.14627127 16.40708703-55.78409591 28.93613531-85.31685256 37.58714484-11.63411626 3.28141741-17.8986404 15.51215501-14.617223 27.14627127 3.28141741 11.63411626 15.51215501 17.8986404 27.14627128 14.61722299 33.11248474-9.84425222 65.03172678-23.86485387 95.16110478-42.06180493 29.23444598-17.8986404 56.9773386-39.0786982 82.03543516-64.13679477 82.33374583-82.33374583 123.79892942-190.0238989 123.79892943-298.01236264s-40.86856224-215.67861681-123.20230808-298.01236264c-82.03543516-82.03543516-189.72558823-122.9039974-297.71405197-122.9039974z" fill="#d4237a" p-id="9299"></path><path d="M205.93324918 566.88916389c29.83106733 29.83106733 69.80469756 72.78780429 82.03543516 118.4293373 6.26452414-2.08817471 20.28512579-5.36959212 27.14627127-5.07128144-13.12566963-49.51957177-58.46889197-100.23238623-90.38813401-132.15162828L184.4548807 507.82365057l151.54182205-151.54182204-17.8986404-17.8986404L247.99505412 408.48619636c-8.65100953-3.87803875-20.58343646-8.05438818-30.42768868-10.14256289l-14.31891232 23.26823252c7.45776683 2.08817471 16.40708703 5.07128145 23.26823252 8.35269885L147.76266788 508.71858259l58.1705813 58.1705813z" fill="#d4237a" p-id="9300"></path><path d="M430.26287551 563.30943581l-28.93613531-28.93613531 56.38071726-56.38071726-17.60032973-17.60032972L383.72641048 516.77297077l-20.28512579-20.28512578L406.09971097 453.8294187l-16.7053977-17.30201905L346.43757631 479.48413661l-19.39019376-19.39019377-18.79357242 18.79357242 19.39019376 19.39019377L293.63658713 532.28512579c-2.68479606-14.02060165-6.56283481-29.23444598-11.33580558-44.746601L367.02101277 402.81829357l-17.30201905-17.30201905L273.64977202 461.58549621c-2.08817471-6.26452414-5.36959212-12.52904828-7.15945616-18.49526175l-26.54964992 13.4239803c4.77297077 8.35269885 8.65100953 17.60032973 12.2307376 26.54964993L216.97074409 518.26452414l17.30201906 17.30201905 27.44458194-27.44458194c4.17634943 12.52904828 6.86114549 22.96992185 7.75607751 27.44458194 2.38648539 10.73918424 3.28141741 18.19695107 0.29831067 23.56654319 7.45776683 2.68479606 19.98681511 8.65100953 24.75978588 11.63411626 0-3.57972808 6.56283481-12.52904828 16.40708704-22.3733005l33.41079541-33.41079541 20.28512578 20.28512579L293.63658713 606.26617277l17.60032973 17.60032972 70.99794025-70.99794025 28.93613531 28.93613532 18.79357242-18.79357242zM426.68314743 414.15409915c7.45776683 1.49155337 20.28512579 5.36959212 27.44458195 8.35269886 2.38648539-13.12566963 3.57972808-26.8479606 3.87803875-40.2719409l76.66584304 76.66584304 19.39019377-19.39019377L454.72435072 340.17305217c-3.28141741-23.56654319-10.14256289-47.13308638-18.79357241-69.50638688l109.77832777-109.77832778-18.19695107-18.19695107-102.02225027 102.02225027c-4.77297077-9.54594155-9.84425222-19.98681511-14.61722299-29.53275666l-24.46147521 14.91553367c6.56283481 11.33580559 12.52904828 23.26823252 18.19695107 35.49897012l-56.38071726 56.38071726 18.19695107 18.19695107 48.32632908-48.32632908c13.72229097 39.37700888 19.68850444 82.33374583 11.93242693 122.30737606z" fill="#d4237a" p-id="9301"></path><path d="M558.83477571 270.66666529c5.07128145-23.56654319 7.75607751-50.71281446 6.56283481-73.38442564l-21.77667915 2.68479606-2.98310673 4.77297078-80.84219247 80.84219247 17.30201905 17.30201905 63.24186274-63.24186274c-0.89493202 14.61722299-2.68479606 31.3226207-6.26452413 44.44829032l15.51215501 15.51215501-54.29254255 54.29254254 17.8986404 17.8986404 54.29254255-54.29254254 32.51586339 32.51586339c2.68479606 2.68479606 2.68479606 4.4746601-0.89493202 8.05438818-2.98310673 3.57972808-15.21384434 15.81046569-27.74289262 27.14627127 7.75607751 2.98310673 17.8986404 7.75607751 23.86485386 12.52904828 17.00370838-16.40708703 28.63782464-28.63782464 33.11248474-39.0786982 4.77297077-10.14256289 1.49155337-17.60032973-8.65100952-27.74289262l-32.81417407-32.81417407 51.90605716-51.90605715-17.8986404-17.8986404-51.90605716 51.90605716-9.84425222-9.84425222zM478.58920459 704.70869496l107.98846374 107.98846374 20.88174713-20.88174713L473.51792314 657.87391925c-1.78986404-11.93242693-5.07128145-23.56654319-7.7560775-34.6040381L529.60032973 559.43139706l-19.39019377-19.39019377L334.50514938 715.74618987l19.39019376 19.39019377 86.80840594-86.80840594c13.72229097 53.09929985 12.82735895 119.62258-7.15945616 177.7931613 8.35269885 0 22.07498983 1.78986404 30.129378 3.87803875 12.82735895-40.2719409 17.30201905-83.52698853 14.91553367-125.29048279z" fill="#d4237a" p-id="9302"></path><path d="M496.48784499 679.6505984c40.2719409-6.86114549 94.86279411-12.52904828 124.69386144-10.73918424l1.1932427-31.02431002c-30.72599935-0.89493202-85.31685257 7.15945616-123.50061876 14.91553366l-2.38648538 26.8479606zM651.01277376 560.92295042c25.6547179 31.62093137 50.41450379 75.47260035 45.04491167 116.63947327 6.86114549-0.89493202 19.09188309-1.19324269 26.25133926-0.59662135 2.68479606-24.16316454-2.68479606-49.2212611-13.4239803-73.08611496 53.39761052 13.4239803 93.07293007-10.73918424 135.13473501-52.80098918L888.46806972 506.63040788c-4.4746601-6.26452414-10.14256289-18.49526175-11.93242693-25.6547179-9.54594155 10.14256289-42.36011561 42.95673696-49.81788244 50.41450379-12.23073761 12.23073761-23.86485387 22.67161117-36.69221282 31.32262069l-37.88545551-37.88545551 67.71652284-67.71652284-17.8986404-17.8986404-67.71652284 67.71652284-28.93613531-28.93613531 61.75030937-61.75030937-70.99794025-70.99794025-141.10094847 141.10094848 70.99794025 70.99794024 59.66213466-59.66213466 78.75401775 78.75401776c-21.47836848 8.35269885-45.04491167 8.65100953-71.59456159-2.38648539-5.96621347-10.73918424-13.12566963-20.88174713-20.28512579-30.42768868l-21.47836848 17.30201905z m-23.86485386-40.57025157l-34.60403811-34.6040381 102.02225028-102.02225027 34.6040381 34.6040381-102.02225027 102.02225027z" fill="#d4237a" p-id="9303"></path></svg>